<?xml version="1.0" standalone="no"?>
<!DOCTYPE svg PUBLIC "-//W3C//DTD SVG 20010904//EN"
 "http://www.w3.org/TR/2001/REC-SVG-20010904/DTD/svg10.dtd">
<svg version="1.0" xmlns="http://www.w3.org/2000/svg"
 width="500.000000pt" height="500.000000pt" viewBox="0 0 500.000000 500.000000"
 preserveAspectRatio="xMidYMid meet">

<g transform="translate(0.000000,500.000000) scale(0.100000,-0.100000)"
fill="#000000" stroke="none">
<path d="M2192 3398 c-41 -19 -92 -78 -92 -105 0 -6 -15 -15 -32 -18 -18 -4
-49 -16 -68 -27 -106 -58 -121 -219 -28 -305 19 -18 23 -30 20 -68 -4 -39 -7
-46 -31 -51 -14 -4 -37 -13 -50 -21 -34 -22 -44 -5 -30 51 22 87 -22 175 -105
215 -35 16 -46 27 -46 44 0 36 -49 103 -94 128 -52 30 -138 32 -179 5 -24 -16
-30 -17 -45 -4 -50 42 -130 50 -191 19 -42 -22 -101 -84 -101 -106 0 -8 -12
-17 -27 -21 -95 -20 -163 -91 -163 -169 0 -32 -16 -40 -44 -22 -94 62 -225 27
-276 -74 -14 -26 -27 -39 -41 -39 -26 0 -89 -32 -111 -57 -66 -72 -62 -197 6
-265 24 -23 28 -36 29 -91 2 -81 35 -134 102 -167 37 -18 57 -22 100 -17 50 5
56 3 88 -27 72 -68 181 -69 254 -4 17 16 25 18 41 9 28 -15 106 -14 145 3 78
32 128 132 109 216 -6 25 -9 46 -7 48 11 11 60 -16 74 -41 9 -16 29 -46 45
-65 24 -28 29 -42 27 -76 -7 -121 109 -226 220 -198 35 9 40 7 70 -24 18 -19
48 -39 67 -45 50 -17 125 -6 170 23 35 24 42 25 89 15 40 -8 61 -8 95 4 92 30
154 135 131 222 -9 34 -8 44 10 76 34 56 30 138 -8 192 -17 25 -49 52 -75 65
-50 25 -57 45 -20 55 20 5 33 -1 61 -28 20 -19 56 -40 79 -47 39 -11 45 -17
56 -57 7 -25 27 -59 44 -76 28 -29 32 -39 33 -96 2 -81 35 -134 102 -167 37
-18 57 -22 100 -17 50 5 56 3 88 -27 72 -68 181 -69 254 -4 17 16 25 18 41 9
28 -15 106 -14 145 3 78 32 128 132 109 216 -9 40 -8 47 10 68 29 30 43 28 90
-13 67 -56 164 -62 231 -14 38 28 57 12 50 -40 -16 -117 94 -222 216 -208 43
5 51 3 72 -20 36 -38 78 -56 135 -57 41 0 62 6 102 31 33 20 54 28 63 22 8 -5
39 -9 70 -9 73 0 137 39 168 102 21 44 26 106 12 142 -4 12 1 35 17 65 46 89
13 194 -76 246 -41 24 -54 37 -62 68 -13 47 -64 106 -107 123 -44 19 -117 18
-155 -2 -29 -15 -33 -15 -67 4 -20 11 -54 24 -75 28 -26 4 -49 18 -68 40 -16
18 -44 39 -63 45 -28 10 -35 20 -44 56 -29 113 -173 173 -276 116 -14 -8 -29
-5 -63 13 -25 13 -59 24 -77 24 -74 0 -147 -43 -180 -106 -15 -27 -29 -40 -50
-44 -69 -15 -114 -51 -140 -113 -13 -33 -19 -37 -50 -37 -20 0 -52 -7 -71 -15
-33 -13 -39 -13 -68 3 -17 9 -32 18 -34 19 -2 0 4 23 13 50 32 93 -9 189 -99
233 -33 15 -46 28 -46 43 0 36 -46 101 -89 125 -57 32 -127 38 -172 15 -35
-19 -36 -19 -79 4 -54 29 -120 29 -178 1z m181 -62 l36 -27 29 21 c41 30 101
36 146 15 46 -22 71 -57 83 -114 7 -40 12 -45 48 -58 73 -25 114 -89 101 -156
-10 -51 -31 -73 -79 -86 -55 -13 -101 -51 -128 -102 -13 -26 -26 -39 -40 -39
-50 0 -132 -66 -152 -122 -12 -34 -57 -22 -104 28 l-44 45 -53 -12 c-48 -10
-58 -10 -92 7 -21 11 -49 35 -62 54 -21 31 -23 43 -18 97 5 60 4 63 -25 83
-59 42 -78 124 -45 188 19 36 64 63 120 71 36 5 41 10 54 49 30 91 143 121
225 58z m-990 -137 l47 -31 29 21 c91 65 204 14 229 -104 7 -34 13 -40 50 -53
72 -24 117 -102 95 -167 -8 -25 -13 -27 -74 -28 -81 -2 -137 -35 -165 -96 -11
-22 -26 -41 -34 -41 -8 0 -38 -11 -66 -24 -54 -25 -89 -69 -100 -125 -9 -42
-25 -39 -67 10 l-35 41 -55 -12 c-49 -11 -59 -11 -93 6 -21 11 -49 35 -62 54
-21 30 -23 43 -18 97 5 57 3 62 -20 78 -40 26 -64 74 -64 129 0 43 4 53 38 86
26 26 51 40 77 45 60 10 63 11 70 43 6 29 56 84 85 95 40 14 88 6 133 -24z
m2133 -64 c30 -23 40 -26 53 -16 40 29 85 42 123 36 53 -9 104 -59 113 -110
10 -60 10 -60 52 -73 22 -7 48 -21 59 -33 18 -20 18 -21 -1 -31 -32 -18 -84
-77 -91 -103 -4 -17 -14 -24 -37 -27 -18 -3 -39 -8 -48 -12 -14 -6 -16 0 -11
44 6 65 -18 129 -63 169 -113 99 -293 44 -324 -98 -37 -171 102 -290 274 -236
18 6 20 2 17 -44 -3 -31 2 -62 11 -80 14 -27 13 -31 -3 -46 -26 -24 -85 -35
-125 -24 -20 6 -48 27 -69 50 -34 40 -34 40 -74 28 -56 -16 -109 -4 -148 35
-38 38 -53 95 -35 140 11 29 9 33 -28 66 -64 55 -79 126 -41 188 22 36 87 71
132 72 21 0 28 6 33 30 22 100 145 140 231 75z m-2689 -216 c15 -6 38 -20 50
-31 14 -13 30 -19 43 -15 11 3 20 2 20 -2 0 -4 16 -26 35 -48 42 -49 42 -53
11 -53 -47 0 -55 -9 -62 -71 l-7 -59 -33 0 c-34 0 -34 1 -34 45 0 33 -6 50
-22 65 -24 22 -68 26 -99 10 -18 -10 -19 -23 -19 -166 0 -90 4 -164 11 -175
14 -27 56 -42 96 -34 33 6 33 6 33 65 l0 60 33 0 c32 0 34 -2 43 -52 8 -50 11
-54 49 -67 30 -10 47 -10 68 -2 27 10 27 12 27 99 l0 89 48 -24 c40 -21 56
-24 104 -18 63 7 78 -3 58 -40 -10 -18 -10 -31 -1 -56 23 -68 2 -134 -55 -170
-42 -25 -112 -27 -148 -4 -26 17 -27 17 -65 -18 -71 -64 -153 -58 -214 14 -30
37 -35 39 -61 30 -69 -27 -139 -5 -176 55 -20 31 -22 45 -17 100 6 62 5 65
-19 76 -34 16 -67 73 -67 117 0 74 61 141 128 141 38 0 50 9 58 41 14 56 77
108 134 109 12 0 34 -5 50 -11z m2005 -43 c19 -8 40 -22 48 -30 17 -21 37 -20
67 4 15 12 41 20 62 20 34 0 37 -3 54 -49 9 -27 30 -60 45 -73 24 -20 27 -30
27 -85 0 -52 5 -68 30 -105 19 -27 48 -52 78 -67 38 -19 45 -26 36 -37 -9 -11
-9 -25 1 -59 22 -77 -3 -140 -67 -170 -45 -21 -91 -22 -132 0 -32 16 -33 16
-68 -15 -76 -67 -143 -64 -211 8 -39 41 -44 44 -68 34 -60 -28 -139 -3 -175
55 -19 30 -21 43 -15 99 6 62 6 65 -19 76 -61 27 -85 131 -45 195 22 37 66 63
107 63 37 0 48 9 56 42 10 39 54 87 90 97 46 13 60 13 99 -3z m730 -3 c35 -31
16 -103 -27 -103 -25 0 -55 33 -55 60 0 23 29 60 47 60 9 0 25 -7 35 -17z
m515 -20 c14 -10 32 -22 39 -28 9 -6 26 -2 54 14 49 28 107 30 149 5 36 -21
71 -82 71 -122 0 -28 4 -32 38 -41 51 -14 76 -34 96 -75 23 -50 20 -97 -10
-142 -23 -34 -25 -42 -15 -69 36 -102 -25 -195 -128 -197 -21 0 -52 7 -69 16
-31 16 -32 16 -63 -14 -18 -17 -49 -35 -70 -42 -54 -16 -123 11 -152 59 -16
28 -24 33 -41 27 -12 -4 -47 -8 -78 -8 -47 -1 -61 3 -83 24 -46 43 -58 77 -51
140 6 54 5 58 -19 74 -111 73 -67 255 62 256 36 0 48 9 58 40 29 94 137 136
212 83z m-2224 -97 l36 -28 29 20 c15 12 41 24 56 28 23 5 32 1 62 -34 19 -23
50 -47 70 -54 24 -8 36 -20 40 -38 10 -45 12 -48 44 -55 96 -21 140 -142 79
-219 -16 -20 -19 -34 -14 -54 16 -64 15 -98 -2 -132 -37 -71 -117 -98 -189
-64 -34 16 -36 16 -62 -8 -40 -38 -66 -48 -118 -48 -43 0 -51 4 -91 46 l-44
45 -53 -12 c-48 -10 -58 -10 -92 7 -21 11 -49 35 -62 54 -21 30 -23 43 -19 96
6 59 5 62 -23 83 -60 44 -80 130 -44 190 21 35 86 71 127 71 21 0 30 7 37 28
18 50 38 76 72 95 46 26 114 18 161 -17z"/>
<path d="M2319 3199 c-7 -14 -10 -69 -7 -158 3 -150 14 -182 66 -202 49 -19
69 1 77 76 4 36 6 108 3 160 -3 82 -7 98 -28 120 -31 33 -94 35 -111 4z"/>
<path d="M1332 3077 c-72 -28 -122 -100 -122 -179 0 -101 46 -172 127 -196
192 -58 331 118 237 299 -35 68 -160 107 -242 76z m106 -139 c7 -7 12 -28 12
-48 0 -41 -14 -60 -45 -60 -30 0 -45 19 -45 56 0 52 47 83 78 52z"/>
<path d="M2740 2703 c-13 -17 -20 -38 -18 -57 3 -30 5 -31 61 -36 l59 -5 -27
-25 c-41 -37 -85 -110 -85 -141 0 -72 33 -89 174 -89 104 0 104 0 130 31 28
33 33 68 14 87 -7 7 -41 12 -82 12 l-70 0 40 43 c81 86 104 117 104 147 0 60
0 60 -145 60 -133 0 -134 0 -155 -27z"/>
<path d="M4187 2718 c-29 -10 -35 -26 -39 -103 l-3 -50 -33 62 c-38 72 -63 93
-110 93 -71 0 -72 -3 -72 -178 0 -172 6 -194 56 -206 15 -4 40 -2 56 5 26 11
28 15 28 73 l0 61 33 -53 c49 -78 95 -102 156 -81 l31 11 0 167 c0 147 -2 170
-17 183 -25 21 -53 26 -86 16z"/>
<path d="M1775 2644 c-69 -17 -73 -23 -80 -90 -4 -35 -4 -103 0 -149 8 -104
34 -145 90 -145 40 0 48 10 55 68 l5 44 35 -54 c20 -30 46 -57 61 -62 35 -12
76 -1 90 25 9 17 6 29 -20 71 l-31 50 25 30 c48 57 24 157 -47 194 -32 17
-144 28 -183 18z m115 -144 c0 -13 -7 -20 -20 -20 -13 0 -20 7 -20 20 0 13 7
20 20 20 13 0 20 -7 20 -20z"/>
<path d="M2994 3206 c-10 -26 4 -48 28 -44 17 2 23 10 23 28 0 18 -6 26 -23
28 -13 2 -25 -3 -28 -12z"/>
<path d="M3474 2216 c-10 -26 4 -48 28 -44 17 2 23 10 23 28 0 18 -6 26 -23
28 -13 2 -25 -3 -28 -12z"/>
<path d="M1350 2076 c-27 -33 18 -72 48 -42 13 13 14 20 6 34 -15 23 -38 26
-54 8z"/>
<path d="M1244 1786 c-3 -7 -4 -42 -2 -77 l3 -64 43 -3 c33 -2 42 0 42 12 0
11 -10 16 -30 16 -23 0 -30 4 -30 20 0 16 7 20 30 20 17 0 30 5 30 10 0 6 -13
10 -30 10 -23 0 -30 4 -30 20 0 16 7 20 30 20 20 0 30 5 30 15 0 20 -78 21
-86 1z"/>
<path d="M1381 1783 c1 -35 44 -138 58 -138 12 0 60 113 61 143 0 22 -28 12
-34 -13 -3 -13 -11 -37 -17 -52 l-11 -28 -17 49 c-17 50 -42 73 -40 39z"/>
<path d="M1550 1721 l0 -81 45 0 c33 0 45 4 45 15 0 10 -10 15 -30 15 -23 0
-30 4 -30 20 0 15 7 20 25 20 14 0 25 5 25 10 0 6 -11 10 -25 10 -37 0 -35 38
3 42 42 5 32 23 -15 26 l-43 3 0 -80z"/>
<path d="M1694 1786 c-3 -7 -4 -42 -2 -77 2 -49 7 -64 18 -64 10 0 17 13 20
39 l5 39 23 -42 c37 -66 52 -55 52 39 0 64 -3 80 -15 80 -11 0 -15 -12 -15
-47 l0 -48 -30 48 c-31 48 -47 58 -56 33z"/>
<path d="M1865 1789 c-4 -6 2 -13 14 -16 19 -5 21 -13 21 -69 0 -50 3 -64 15
-64 12 0 15 14 15 64 0 56 2 64 21 69 35 9 11 27 -36 27 -24 0 -47 -5 -50 -11z"/>
<path d="M2114 1786 c-3 -7 -4 -42 -2 -77 2 -49 7 -64 18 -64 8 0 16 9 18 21
2 12 16 27 35 35 37 16 48 57 22 83 -20 20 -84 21 -91 2z m71 -41 c0 -11 -8
-21 -17 -23 -14 -3 -18 3 -18 23 0 20 4 26 18 23 9 -2 17 -12 17 -23z"/>
<path d="M2274 1786 c-10 -26 1 -139 14 -144 8 -2 12 7 12 27 0 35 25 43 35
12 8 -26 32 -44 45 -36 8 5 6 15 -5 32 -12 18 -14 28 -6 36 18 18 13 65 -8 77
-28 14 -81 12 -87 -4z m74 -33 c-2 -10 -12 -18 -23 -18 -11 0 -21 8 -23 18 -3
13 3 17 23 17 20 0 26 -4 23 -17z"/>
<path d="M2456 1784 c-10 -10 -16 -33 -16 -64 0 -56 18 -80 59 -80 39 0 55 23
55 80 0 27 -6 55 -13 64 -17 20 -65 21 -85 0z m64 -65 c0 -47 -2 -50 -22 -47
-18 2 -24 11 -26 36 -4 45 3 62 28 62 17 0 20 -6 20 -51z"/>
<path d="M2614 1786 c-3 -7 -4 -42 -2 -77 3 -62 4 -64 31 -67 16 -2 39 4 53
13 20 13 24 24 24 65 0 39 -4 52 -22 64 -28 20 -77 21 -84 2z m71 -66 c0 -39
-3 -45 -22 -48 -21 -3 -23 0 -23 48 0 48 2 51 23 48 19 -3 22 -9 22 -48z"/>
<path d="M2770 1736 c0 -87 32 -117 91 -86 16 9 19 22 19 81 0 52 -3 70 -12
67 -8 -3 -14 -28 -16 -67 -3 -58 -5 -62 -25 -59 -20 3 -22 10 -25 66 -2 46 -7
62 -17 62 -12 0 -15 -15 -15 -64z"/>
<path d="M2952 1788 c-16 -16 -16 -120 0 -136 14 -14 57 -16 77 -3 22 14 5 28
-29 23 l-30 -4 0 52 0 52 30 -4 c34 -5 51 9 29 23 -20 13 -63 11 -77 -3z"/>
<path d="M3085 1789 c-4 -6 2 -13 14 -16 19 -5 21 -13 21 -69 0 -50 3 -64 15
-64 12 0 15 14 15 64 0 56 2 64 21 69 35 9 11 27 -36 27 -24 0 -47 -5 -50 -11z"/>
<path d="M3240 1720 c0 -61 3 -81 13 -77 8 2 12 27 12 77 0 50 -4 75 -12 78
-10 3 -13 -17 -13 -78z"/>
<path d="M3336 1778 c-37 -52 -9 -138 43 -138 40 0 61 28 61 82 0 31 -6 50
-18 61 -26 24 -68 21 -86 -5z m69 -58 c0 -39 -3 -45 -22 -48 -26 -4 -39 31
-29 74 5 19 12 25 29 22 19 -3 22 -9 22 -48z"/>
<path d="M3494 1786 c-3 -7 -4 -42 -2 -77 2 -49 7 -64 18 -64 10 0 17 13 20
39 l5 39 23 -42 c37 -66 52 -55 52 39 0 64 -3 80 -15 80 -11 0 -15 -12 -15
-47 l0 -48 -30 48 c-31 48 -47 58 -56 33z"/>
<path d="M3676 1785 c-28 -28 -18 -57 27 -74 40 -15 35 -41 -8 -41 -36 0 -47
-13 -19 -24 33 -13 64 -6 79 18 20 30 11 51 -26 66 -39 17 -38 40 2 40 20 0
29 4 27 13 -7 19 -63 20 -82 2z"/>
</g>
</svg>
